<svg width="129" height="30" viewBox="0 0 129 30" fill="none" xmlns="http://www.w3.org/2000/svg">
<path d="M0.619995 7.66001H3.59V9.31001C4.17 8.67001 4.8 8.19001 5.48 7.87001C6.18 7.53001 6.91 7.36001 7.67 7.36001C9.15 7.36001 10.09 8.09001 10.49 9.55001C11.69 8.09001 13.13 7.36001 14.81 7.36001C15.71 7.36001 16.44 7.69001 17 8.35001C17.58 9.01001 17.87 10.02 17.87 11.38V25H14.93V11.59C14.93 10.79 14.8 10.24 14.54 9.94001C14.28 9.62001 13.91 9.46001 13.43 9.46001C12.99 9.46001 12.53 9.59001 12.05 9.85001C11.57 10.09 11.13 10.43 10.73 10.87V25H7.79V11.59C7.79 10.79 7.66 10.24 7.4 9.94001C7.14 9.62001 6.77 9.46001 6.29 9.46001C5.87 9.46001 5.42 9.59001 4.94 9.85001C4.46 10.09 4.01 10.43 3.59 10.87V25H0.619995V7.66001Z" fill="#222222"/>
<path d="M20.7406 26.89C21.9406 26.89 22.7606 26.8 23.2006 26.62C23.6606 26.44 23.8906 26.1 23.8906 25.6C23.8906 25.36 23.6706 24.3 23.2306 22.42L19.7506 7.66001H22.9906L25.3306 20.62L27.5806 7.66001H30.8206L26.6806 25.96C26.4006 27.18 25.8106 28.05 24.9106 28.57C24.0106 29.09 22.7506 29.35 21.1306 29.35H20.7406V26.89Z" fill="#222222"/>
<path d="M36.7787 25.24C35.3787 25.24 34.2387 24.8 33.3587 23.92C32.4987 23.04 32.0087 21.86 31.8887 20.38L34.5587 19.57C34.7187 20.69 34.9887 21.52 35.3687 22.06C35.7687 22.6 36.3287 22.87 37.0487 22.87C37.6087 22.87 38.0387 22.71 38.3387 22.39C38.6587 22.05 38.8187 21.6 38.8187 21.04C38.8187 20.54 38.7087 20.09 38.4887 19.69C38.2687 19.29 37.9087 18.88 37.4087 18.46L34.4387 15.91C33.7587 15.33 33.2287 14.72 32.8487 14.08C32.4887 13.42 32.3087 12.62 32.3087 11.68C32.3087 10.34 32.7087 9.30001 33.5087 8.56001C34.3087 7.80001 35.3987 7.42001 36.7787 7.42001C38.0987 7.42001 39.1287 7.85001 39.8687 8.71001C40.6287 9.55001 41.0687 10.64 41.1887 11.98L39.0287 12.79C38.8887 11.81 38.6587 11.07 38.3387 10.57C38.0187 10.05 37.5387 9.79001 36.8987 9.79001C36.3787 9.79001 35.9587 9.96001 35.6387 10.3C35.3387 10.64 35.1887 11.06 35.1887 11.56C35.1887 12.2 35.4787 12.78 36.0587 13.3L39.1187 16.12C39.8987 16.84 40.4987 17.55 40.9187 18.25C41.3587 18.95 41.5787 19.8 41.5787 20.8C41.5787 22.24 41.1487 23.34 40.2887 24.1C39.4287 24.86 38.2587 25.24 36.7787 25.24Z" fill="#222222"/>
<path d="M48.5994 25.24C46.0994 25.24 44.8494 23.86 44.8494 21.1V9.79001H43.0194V7.66001H44.8494V2.59001H48.0594V7.66001H50.8494V9.79001H48.0594V20.89C48.0594 21.59 48.1694 22.08 48.3894 22.36C48.6094 22.64 49.0294 22.78 49.6494 22.78C50.0494 22.78 50.4394 22.75 50.8194 22.69V25.06C50.0194 25.18 49.2794 25.24 48.5994 25.24Z" fill="#222222"/>
<path d="M53.4179 1.72001H56.6279V5.08001H53.4179V1.72001ZM53.4179 7.66001H56.6279V25H53.4179V7.66001Z" fill="#222222"/>
<path d="M64.8034 25.24C63.4434 25.24 62.3934 24.97 61.6534 24.43C60.9134 23.87 60.4034 23.1 60.1234 22.12C59.8634 21.12 59.7334 19.86 59.7334 18.34V14.35C59.7334 12.79 59.8634 11.51 60.1234 10.51C60.4034 9.51001 60.9134 8.75001 61.6534 8.23001C62.3934 7.69001 63.4434 7.42001 64.8034 7.42001C66.0434 7.42001 67.0034 7.62001 67.6834 8.02001C68.3834 8.42001 68.8634 9.02001 69.1234 9.82001C69.4034 10.6 69.5434 11.62 69.5434 12.88V13.9H66.6334V12.85C66.6334 11.71 66.5034 10.92 66.2434 10.48C66.0034 10.02 65.5334 9.79001 64.8334 9.79001C64.2934 9.79001 63.8934 9.91001 63.6334 10.15C63.3734 10.39 63.1934 10.78 63.0934 11.32C62.9934 11.86 62.9434 12.65 62.9434 13.69V19.15C62.9434 20.15 63.0034 20.92 63.1234 21.46C63.2434 21.98 63.4334 22.35 63.6934 22.57C63.9734 22.77 64.3634 22.87 64.8634 22.87C65.6034 22.87 66.0834 22.63 66.3034 22.15C66.5234 21.65 66.6334 20.89 66.6334 19.87V18.46H69.5434V19.66C69.5434 21.54 69.1934 22.94 68.4934 23.86C67.8134 24.78 66.5834 25.24 64.8034 25.24Z" fill="#222222"/>
<path d="M72.3973 7.66001H75.3673V9.31001C75.9473 8.67001 76.5773 8.19001 77.2573 7.87001C77.9573 7.53001 78.6873 7.36001 79.4473 7.36001C80.9273 7.36001 81.8673 8.09001 82.2673 9.55001C83.4673 8.09001 84.9073 7.36001 86.5873 7.36001C87.4873 7.36001 88.2173 7.69001 88.7773 8.35001C89.3573 9.01001 89.6473 10.02 89.6473 11.38V25H86.7073V11.59C86.7073 10.79 86.5773 10.24 86.3173 9.94001C86.0573 9.62001 85.6873 9.46001 85.2073 9.46001C84.7673 9.46001 84.3073 9.59001 83.8273 9.85001C83.3473 10.09 82.9073 10.43 82.5073 10.87V25H79.5673V11.59C79.5673 10.79 79.4373 10.24 79.1773 9.94001C78.9173 9.62001 78.5473 9.46001 78.0673 9.46001C77.6473 9.46001 77.1973 9.59001 76.7173 9.85001C76.2373 10.09 75.7873 10.43 75.3673 10.87V25H72.3973V7.66001Z" fill="#222222"/>
<path d="M97.558 25.24C95.718 25.24 94.408 24.7 93.628 23.62C92.868 22.52 92.488 20.93 92.488 18.85V13.81C92.488 11.73 92.868 10.15 93.628 9.07001C94.408 7.97001 95.718 7.42001 97.558 7.42001C99.378 7.42001 100.668 7.97001 101.428 9.07001C102.208 10.15 102.598 11.73 102.598 13.81V18.85C102.598 20.93 102.208 22.52 101.428 23.62C100.668 24.7 99.378 25.24 97.558 25.24ZM97.558 22.87C98.138 22.87 98.558 22.7 98.818 22.36C99.078 22.02 99.238 21.6 99.298 21.1C99.358 20.6 99.388 19.92 99.388 19.06V13.63C99.388 12.77 99.358 12.09 99.298 11.59C99.238 11.07 99.078 10.64 98.818 10.3C98.558 9.96001 98.138 9.79001 97.558 9.79001C96.978 9.79001 96.548 9.96001 96.268 10.3C96.008 10.64 95.848 11.07 95.788 11.59C95.728 12.09 95.698 12.77 95.698 13.63V19.06C95.698 19.92 95.728 20.6 95.788 21.1C95.848 21.6 96.008 22.02 96.268 22.36C96.548 22.7 96.978 22.87 97.558 22.87Z" fill="#222222"/>
<path d="M109.552 25.24C108.052 25.24 106.952 24.7 106.252 23.62C105.552 22.52 105.202 20.71 105.202 18.19V14.83C105.202 12.53 105.502 10.72 106.102 9.40001C106.722 8.08001 107.842 7.42001 109.462 7.42001C110.482 7.42001 111.442 7.87001 112.342 8.77001V0.700012H115.552V25H112.342V23.89C111.502 24.79 110.572 25.24 109.552 25.24ZM110.362 22.72C111.002 22.72 111.662 22.5 112.342 22.06V10.69C111.602 10.19 110.922 9.94001 110.302 9.94001C109.042 9.94001 108.412 11.15 108.412 13.57V18.46C108.412 19.86 108.542 20.92 108.802 21.64C109.062 22.36 109.582 22.72 110.362 22.72Z" fill="#222222"/>
<path d="M123.604 25.24C122.264 25.24 121.224 24.99 120.484 24.49C119.744 23.97 119.224 23.21 118.924 22.21C118.624 21.21 118.474 19.91 118.474 18.31V14.35C118.474 11.95 118.844 10.2 119.584 9.10001C120.344 7.98001 121.684 7.42001 123.604 7.42001C125.004 7.42001 126.054 7.71001 126.754 8.29001C127.474 8.87001 127.944 9.69001 128.164 10.75C128.404 11.79 128.524 13.2 128.524 14.98V16.39H121.684V19.87C121.684 20.93 121.834 21.7 122.134 22.18C122.454 22.64 122.954 22.87 123.634 22.87C124.314 22.87 124.774 22.64 125.014 22.18C125.254 21.7 125.374 20.98 125.374 20.02V18.97H128.494V19.63C128.494 21.45 128.104 22.84 127.324 23.8C126.544 24.76 125.304 25.24 123.604 25.24ZM125.374 14.65V13.09C125.374 11.91 125.254 11.07 125.014 10.57C124.794 10.05 124.314 9.79001 123.574 9.79001C123.054 9.79001 122.654 9.91001 122.374 10.15C122.114 10.39 121.934 10.79 121.834 11.35C121.734 11.89 121.684 12.68 121.684 13.72V14.65H125.374Z" fill="#222222"/>
</svg>
